{"title":"Poena is Koning (2007)","uid":10079138,"size":943603157,"categoryP":"video","categoryS":"movies","magnet":"?xt=urn:btih:05c1d03cebd524bada1ac0f7d60f2f305e1cab82&amp;dn=Poena+is+Koning+%282007%29&amp;tr=udp%3A%2F%2Ftracker.openbittorrent.com%3A80&amp;tr=udp%3A%2F%2Fopen.demonii.com%3A1337&amp;tr=udp%3A%2F%2Ftracker.coppersurfer.tk%3A6969&amp;tr=udp%3A%2F%2Fexodus.desync.com%3A6969","seeders":1,"leechers":3,"uploader":"freebme","files":-1,"time":1398967722,"description":"South African Afrikaans Movie\n\nTwo buddies decide that they cannot leave school as virgins. Unfortunately, they embark on this quest during the final matric exam, which causes a major distraction from their studies and has dire consequences. Juffrou Muller, one of the teachers in the school comes to their aid, but all the two heroes want to do is to jump their teacher, who is both flattered and quite in favour of the idea. Our hero then gets arrested for indecent exposure, having to complete his matric exams in handcuffs. He later pursues his dream to become a pop star with his band, trying their luck internationally, with surprising results. During all this he still seeks to get laid, and eventually falls in love. \n\nGeneral\nComplete name                            : Poena is Koning (2007)\nFormat                                   : MPEG-4\nFormat profile                           : Base Media / Version 2\nCodec ID                                 : mp42\nFile size                                : 900 MiB\nDuration                                 : 1h 25mn\nOverall bit rate mode                    : Variable\nOverall bit rate                         : 1 478 Kbps\nEncoded date                             : UTC 2012-07-28 06:38:26\nTagged date                              : UTC 2012-07-28 07:30:30\nWriting application                      : HandBrake 4877svn 2012072601\n\nVideo\n\n\nFormat                                   : AVC\nFormat/Info                              : Advanced Video Codec\nFormat profile                           : &lt;a class=&quot;__cf_email__&quot; href=&quot;/cdn-cgi/l/email-protection&quot; data-cfemail=&quot;317c50585f717d021f00&quot;&gt;[email&amp;#160;protected]&lt;/a&gt;&lt;script cf-hash='f9e31' type=&quot;text/javascript&quot;&gt;\n/* &lt;![CDATA[ */!function(){try{var t=&quot;currentScript&quot;in document?document.currentScript:function(){for(var t=document.getElementsByTagName(&quot;script&quot;),e=t.length;e--;)if(t[e].getAttribute(&quot;cf-hash&quot;))return t[e]}();if(t&amp;&amp;t.previousSibling){var e,r,n,i,c=t.previousSibling,a=c.getAttribute(&quot;data-cfemail&quot;);if(a){for(e=&quot;&quot;,r=parseInt(a.substr(0,2),16),n=2;a.length-n;n+=2)i=parseInt(a.substr(n,2),16)^r,e+=String.fromCharCode(i);e=document.createTextNode(e),c.parentNode.replaceChild(e,c)}}}catch(u){}}();/* ]]&gt; */&lt;/script&gt;\nFormat settings, CABAC                   : Yes\nFormat settings, ReFrames                : 4 frames\nCodec ID                                 : avc1\nCodec ID/Info                            : Advanced Video Coding\nDuration                                 : 1h 25mn\nBit rate                                 : 1 314 Kbps\nWidth                                    : 800 pixels\nHeight                                   : 608 pixels\nDisplay aspect ratio                     : 4:3\nFrame rate mode                          : Constant\nFrame rate                               : 25.000 fps\nColor space                              : YUV\nChroma subsampling                       : 4:2:0\nBit depth                                : 8 bits\nScan type                                : Progressive\nBits/(Pixel*Frame)                       : 0.108\nStream size                              : 800 MiB (89%)\nWriting library                          : x264 core 125\nEncoded date                             : UTC 2012-07-28 06:38:26\nTagged date                              : UTC 2012-07-28 07:30:30\nColor primaries                          : BT.709\nTransfer characteristics                 : BT.709\nMatrix coefficients                      : BT.709\n\nAudio\nID                                       : 2\nFormat                                   : AAC\nFormat/Info                              : Advanced Audio Codec\nFormat profile                           : LC\nCodec ID                                 : 40\nDuration                                 : 1h 25mn\nBit rate mode                            : Variable\nBit rate                                 : 160 Kbps\nMaximum bit rate                         : 285 Kbps\nChannel(s)                               : 2 channels\nChannel positions                        : Front: L R\nSampling rate                            : 48.0 KHz\nCompression mode                         : Lossy\nStream size                              : 97.4 MiB (11%)\nEncoded date                             : UTC 2012-07-28 06:38:26\nTagged date                              : UTC 2012-07-28 07:30:30\n\n","torrent":{"xt":"urn:btih:05c1d03cebd524bada1ac0f7d60f2f305e1cab82","amp;dn":"Poena+is+Koning+%282007%29","amp;tr":["udp%3A%2F%2Ftracker.openbittorrent.com%3A80","udp%3A%2F%2Fopen.demonii.com%3A1337","udp%3A%2F%2Ftracker.coppersurfer.tk%3A6969","udp%3A%2F%2Fexodus.desync.com%3A6969"],"infoHash":"05c1d03cebd524bada1ac0f7d60f2f305e1cab82","infoHashBuffer":{"type":"Buffer","data":[5,193,208,60,235,213,36,186,218,26,192,247,214,15,47,48,94,28,171,130]},"announce":[],"urlList":[]}}